<svg width="396" height="395" viewBox="0 0 396 395" fill="none" xmlns="http://www.w3.org/2000/svg">
<rect width="396" height="395" fill="white"/>
<path d="M216 285L144 110H134L72.4999 259C62.0001 289.5 87.6666 283.667 93.9999 285L111.5 244H168L185 285H216Z" fill="#2F2E2E" stroke="#2F2E2E"/>
<circle cx="197.5" cy="197.5" r="176.5" stroke="#2F2E2E" stroke-width="34"/>
<circle cx="197.5" cy="197.5" r="142.5" stroke="white" stroke-width="34"/>
<path d="M236 284C247.425 284 258.738 281.763 269.293 277.416C279.849 273.069 289.44 266.697 297.518 258.665C305.597 250.632 312.005 241.097 316.378 230.602C320.75 220.107 323 208.859 323 197.5C323 186.141 320.75 174.893 316.378 164.398C312.005 153.903 305.597 144.368 297.518 136.335C289.44 128.303 279.849 121.931 269.293 117.584C258.738 113.237 247.425 111 236 111V143.055C243.191 143.055 250.312 144.463 256.956 147.199C263.599 149.936 269.636 153.946 274.721 159.002C279.806 164.057 283.839 170.059 286.591 176.665C289.343 183.27 290.76 190.35 290.76 197.5C290.76 204.65 289.343 211.73 286.591 218.335C283.839 224.941 279.806 230.943 274.721 235.998C269.636 241.054 263.599 245.064 256.956 247.801C250.312 250.537 243.191 251.945 236 251.945V284Z" fill="#2F2E2E"/>
<rect x="192" y="111" width="34" height="173" fill="#2F2E2E"/>
<rect x="192" y="252" width="44" height="32" fill="#2F2E2E"/>
<rect x="192" y="111" width="44" height="32" fill="#2F2E2E"/>
<rect x="143.469" y="108.076" width="21.2526" height="199.287" transform="rotate(-22.4017 143.469 108.076)" fill="white"/>
<path d="M125.5 210L139.5 176.5L153.5 210H125.5Z" fill="white" stroke="white"/>
<circle cx="24" cy="24" r="20" fill="#2F2E2E"/>
<circle cx="371" cy="24" r="20" fill="#2F2E2E"/>
<circle cx="371" cy="371" r="20" fill="#2F2E2E"/>
<circle cx="24" cy="371" r="20" fill="#2F2E2E"/>
</svg>
