<svg width="517" height="516" viewBox="0 0 517 516" fill="none" xmlns="http://www.w3.org/2000/svg">
<rect width="517" height="516" fill="#D9D9D9"/>
<path d="M287 345L215 170H205L143.5 319C133 349.5 158.667 343.667 165 345L182.5 304H239L256 345H287Z" fill="#2F2E2E" stroke="#2F2E2E"/>
<circle cx="268.5" cy="257.5" r="176.5" stroke="#2F2E2E" stroke-width="34"/>
<circle cx="268.5" cy="257.5" r="142.5" stroke="#D9D9D9" stroke-width="34"/>
<path d="M307 344C318.425 344 329.738 341.763 340.293 337.416C350.849 333.069 360.44 326.697 368.518 318.665C376.597 310.632 383.005 301.097 387.378 290.602C391.75 280.107 394 268.859 394 257.5C394 246.141 391.75 234.893 387.378 224.398C383.005 213.903 376.597 204.368 368.518 196.335C360.44 188.303 350.849 181.931 340.293 177.584C329.738 173.237 318.425 171 307 171L307 203.055C314.191 203.055 321.312 204.463 327.956 207.199C334.599 209.936 340.636 213.946 345.721 219.002C350.806 224.057 354.839 230.059 357.591 236.665C360.343 243.27 361.76 250.35 361.76 257.5C361.76 264.65 360.343 271.73 357.591 278.335C354.839 284.941 350.806 290.943 345.721 295.998C340.636 301.054 334.599 305.064 327.956 307.801C321.312 310.537 314.191 311.945 307 311.945V344Z" fill="#2F2E2E"/>
<rect x="263" y="171" width="34" height="173" fill="#2F2E2E"/>
<rect x="263" y="312" width="44" height="32" fill="#2F2E2E"/>
<rect x="263" y="171" width="44" height="32" fill="#2F2E2E"/>
<rect x="214.469" y="168.076" width="21.2526" height="199.287" transform="rotate(-22.4017 214.469 168.076)" fill="#D9D9D9"/>
<path d="M196.5 270L210.5 236.5L224.5 270H196.5Z" fill="#D9D9D9" stroke="#D9D9D9"/>
<circle cx="95" cy="84" r="20" fill="#2F2E2E"/>
<circle cx="442" cy="84" r="20" fill="#2F2E2E"/>
<circle cx="442" cy="431" r="20" fill="#2F2E2E"/>
<circle cx="95" cy="431" r="20" fill="#2F2E2E"/>
</svg>
